# xmcd
# 
# Track frame offsets:
#     150
#     31225
#     60199
#     106140
#     137896
#     171441
#     204942
# 
# Disc length: 3257
# 
# Revision: 1
# Processed by: cddbd v1.5.2PL0 Copyright (c) Steve Scherf et al.
# Submitted via: BonkEnc v1.0.8
# 
DISCID=550cb707
DTITLE=Coung Vu - Vu-Tet
DYEAR=2007
DGENRE=Contemporary Jazz
TTITLE0=Intro
TTITLE1=Accelerated Thoughts
TTITLE2=Solitary Confinement
TTITLE3=Just A Memory
TTITLE4=Never, Ever, Ever
TTITLE5=Now I Know (For Vina)
TTITLE6=I Promise
EXTD=YEAR: 2007
EXTT0=
EXTT1=
EXTT2=
EXTT3=
EXTT4=
EXTT5=
EXTT6=
PLAYORDER=
